<svg width="598" height="598" viewBox="0 0 598 598" fill="none" xmlns="http://www.w3.org/2000/svg">
<path d="M187.599 3.3333C168.799 8.26664 169.599 7.59997 88.5327 88.5333C7.19935 169.867 8.26602 168.8 3.33268 188.133C0.799349 198 0.666016 203.2 0.666016 299.333C0.666016 395.467 0.799349 400.667 3.33268 410.533C8.26602 429.867 7.19935 428.8 88.5327 510.133C169.866 591.467 168.799 590.4 188.133 595.333C197.999 597.867 203.199 598 299.333 598C395.466 598 400.666 597.867 410.533 595.333C429.999 590.4 428.799 591.467 510.133 510.133C591.333 428.8 590.399 429.867 595.333 410.533C597.866 400.667 597.999 395.467 597.999 299.333C597.999 203.2 597.866 198 595.333 188.133C590.399 168.8 591.466 169.867 510.133 88.5333C428.799 7.19997 429.866 8.26664 410.533 3.3333C400.666 0.799969 395.599 0.666636 298.799 0.799969C203.199 0.799969 196.799 0.933302 187.599 3.3333ZM406.133 24.1333C410.133 25.3333 415.999 27.7333 419.333 29.6C426.399 33.6 556.666 162.8 565.466 174.4C568.933 179.067 572.399 185.867 573.999 190.933C576.533 199.333 576.666 203.2 576.666 299.333C576.666 395.467 576.533 399.333 573.999 407.733C572.399 412.8 568.933 419.6 565.466 424.267C556.666 435.867 426.399 565.067 419.333 569.067C405.599 576.8 407.733 576.667 299.333 576.667C190.933 576.667 193.066 576.8 179.333 569.067C172.266 565.067 41.866 435.867 33.1994 424.267C29.7327 419.6 26.266 412.8 24.666 407.733C22.1327 399.333 21.9994 395.467 21.9994 299.333C21.9994 203.2 22.1327 199.333 24.666 190.933C26.266 185.867 29.7327 179.067 33.1994 174.4C40.7994 164.267 171.866 34 178.399 30C181.199 28.4 186.933 25.8666 191.066 24.5333C198.133 22.2666 205.866 22.1333 298.799 22.1333C386.399 22 399.733 22.2666 406.133 24.1333Z" fill="#34D399"/>
<path d="M167.332 117.867C160.132 120.133 155.466 123.733 139.732 138.933C124.799 153.467 123.332 155.333 121.332 162.4C118.799 171.067 119.466 178.4 123.332 186C124.666 188.533 154.932 220.4 190.532 256.533L255.332 322.533V408.667V494.8L258.799 501.733C265.599 515.333 274.666 519.333 299.332 519.333C323.999 519.333 333.066 515.333 339.866 501.733L343.332 494.8V408.667V322.533L408.132 256.667C443.732 220.4 473.999 188.533 475.332 186C479.199 178.4 479.866 171.067 477.332 162.4C475.332 155.333 473.866 153.467 458.932 138.933C449.999 130.133 440.399 121.867 437.732 120.533C430.666 116.933 421.866 116 414.399 118C408.532 119.6 403.732 124 353.732 173.867L299.332 227.867L245.066 173.867C198.799 127.867 189.866 119.6 185.199 118.267C179.066 116.533 172.399 116.4 167.332 117.867ZM237.999 196C290.799 248.667 295.066 252.667 299.332 252.667C303.599 252.667 307.866 248.667 360.666 196.133C397.999 158.8 418.532 139.2 420.932 138.667C423.466 138 425.866 138.533 428.932 140.4C435.332 144.4 457.999 167.867 457.999 170.533C457.999 171.867 457.332 174.133 456.399 175.733C455.599 177.333 425.732 208.267 390.132 244.4C354.532 280.667 324.666 311.6 323.732 313.067C322.532 315.333 322.132 337.467 321.999 403.733V491.467L318.666 494.667C315.599 497.867 314.666 498 299.332 498C283.999 498 283.066 497.867 279.999 494.667L276.666 491.467V403.733C276.532 337.467 276.132 315.333 274.932 313.067C273.999 311.6 244.132 280.667 208.532 244.4C172.932 208.267 143.066 177.333 142.266 175.733C141.332 174.133 140.666 171.867 140.666 170.533C140.666 168 163.199 144.4 169.332 140.4C177.332 135.333 177.199 135.2 237.999 196Z" fill="#34D399"/>
</svg>
